G04 #@! TF.GenerationSoftware,KiCad,Pcbnew,(5.0.0)*
G04 #@! TF.CreationDate,2018-07-25T00:29:33+09:00*
G04 #@! TF.ProjectId,sample01,73616D706C6530312E6B696361645F70,rev?*
G04 #@! TF.SameCoordinates,PX40311b0PY3680a30*
G04 #@! TF.FileFunction,Copper,L2,Bot,Signal*
G04 #@! TF.FilePolarity,Positive*
%FSLAX46Y46*%
G04 Gerber Fmt 4.6, Leading zero omitted, Abs format (unit mm)*
G04 Created by KiCad (PCBNEW (5.0.0)) date 07/25/18 00:29:33*
%MOMM*%
%LPD*%
G01*
G04 APERTURE LIST*
G04 #@! TA.AperFunction,ComponentPad*
%ADD10R,1.700000X1.700000*%
G04 #@! TD*
G04 #@! TA.AperFunction,ComponentPad*
%ADD11O,1.700000X1.700000*%
G04 #@! TD*
G04 #@! TA.AperFunction,ComponentPad*
%ADD12R,1.800000X1.800000*%
G04 #@! TD*
G04 #@! TA.AperFunction,ComponentPad*
%ADD13C,1.800000*%
G04 #@! TD*
G04 #@! TA.AperFunction,ComponentPad*
%ADD14O,1.050000X1.500000*%
G04 #@! TD*
G04 #@! TA.AperFunction,ComponentPad*
%ADD15R,1.050000X1.500000*%
G04 #@! TD*
G04 #@! TA.AperFunction,ComponentPad*
%ADD16O,1.600000X1.600000*%
G04 #@! TD*
G04 #@! TA.AperFunction,ComponentPad*
%ADD17C,1.600000*%
G04 #@! TD*
G04 #@! TA.AperFunction,ComponentPad*
%ADD18C,2.000000*%
G04 #@! TD*
G04 #@! TA.AperFunction,ViaPad*
%ADD19C,0.800000*%
G04 #@! TD*
G04 #@! TA.AperFunction,Conductor*
%ADD20C,0.250000*%
G04 #@! TD*
G04 #@! TA.AperFunction,Conductor*
%ADD21C,0.400000*%
G04 #@! TD*
G04 APERTURE END LIST*
D10*
G04 #@! TO.P,J1,1*
G04 #@! TO.N,+5V*
X26670000Y19050000D03*
D11*
G04 #@! TO.P,J1,2*
G04 #@! TO.N,GND*
X26670000Y16510000D03*
G04 #@! TD*
D12*
G04 #@! TO.P,D1,1*
G04 #@! TO.N,Net-(D1-Pad1)*
X6350000Y11430000D03*
D13*
G04 #@! TO.P,D1,2*
G04 #@! TO.N,Net-(D1-Pad2)*
X6350000Y13970000D03*
G04 #@! TD*
D14*
G04 #@! TO.P,Q1,2*
G04 #@! TO.N,Net-(D1-Pad1)*
X6350000Y3810000D03*
G04 #@! TO.P,Q1,3*
G04 #@! TO.N,Net-(Q1-Pad3)*
X7620000Y3810000D03*
D15*
G04 #@! TO.P,Q1,1*
G04 #@! TO.N,GND*
X5080000Y3810000D03*
G04 #@! TD*
D16*
G04 #@! TO.P,R1,2*
G04 #@! TO.N,Net-(R1-Pad2)*
X21590000Y3810000D03*
D17*
G04 #@! TO.P,R1,1*
G04 #@! TO.N,Net-(Q1-Pad3)*
X11430000Y3810000D03*
G04 #@! TD*
G04 #@! TO.P,R2,1*
G04 #@! TO.N,+5V*
X21590000Y19050000D03*
D16*
G04 #@! TO.P,R2,2*
G04 #@! TO.N,Net-(D1-Pad2)*
X11430000Y19050000D03*
G04 #@! TD*
D18*
G04 #@! TO.P,SW1,2*
G04 #@! TO.N,Net-(R1-Pad2)*
X15240000Y9470000D03*
G04 #@! TO.P,SW1,1*
G04 #@! TO.N,+5V*
X15240000Y13970000D03*
G04 #@! TO.P,SW1,2*
G04 #@! TO.N,Net-(R1-Pad2)*
X21740000Y9470000D03*
G04 #@! TO.P,SW1,1*
G04 #@! TO.N,+5V*
X21740000Y13970000D03*
G04 #@! TD*
D19*
G04 #@! TO.N,GND*
X1270000Y3810000D03*
X1270000Y6350000D03*
X1270000Y8890000D03*
X1270000Y11430000D03*
X1270000Y13970000D03*
X1270000Y16510000D03*
X1270000Y19050000D03*
X1270000Y21590000D03*
X29210000Y21590000D03*
X26670000Y21590000D03*
X24130000Y21590000D03*
X21590000Y21590000D03*
X19050000Y21590000D03*
X16510000Y21590000D03*
X13970000Y21590000D03*
X11430000Y21590000D03*
X8890000Y21590000D03*
X6350000Y21590000D03*
X3810000Y21590000D03*
X3810000Y1270000D03*
X6350000Y1270000D03*
X8890000Y1270000D03*
X11430000Y1270000D03*
X13970000Y1270000D03*
X16510000Y1270000D03*
X19050000Y1270000D03*
X21590000Y1270000D03*
X24130000Y1270000D03*
X26670000Y1270000D03*
X29210000Y1270000D03*
X29210000Y3810000D03*
X29210000Y6350000D03*
X29210000Y8890000D03*
X29210000Y11430000D03*
X29210000Y13970000D03*
X29210000Y16510000D03*
X29210000Y19050000D03*
X1270000Y1270000D03*
G04 #@! TD*
D20*
G04 #@! TO.N,GND*
X1270000Y3810000D02*
X1270000Y6350000D01*
X1270000Y6350000D02*
X1270000Y8890000D01*
X1270000Y8890000D02*
X1270000Y19050000D01*
X1270000Y19050000D02*
X1270000Y21590000D01*
D21*
X5080000Y4960000D02*
X5080000Y3810000D01*
X12689999Y12569999D02*
X5080000Y4960000D01*
X22729999Y12569999D02*
X12689999Y12569999D01*
X26670000Y16510000D02*
X22729999Y12569999D01*
X26670000Y16510000D02*
X29210000Y16510000D01*
X29210000Y16510000D02*
X29210000Y19050000D01*
X29210000Y21590000D02*
X29210000Y19050000D01*
X29210000Y21590000D02*
X26670000Y21590000D01*
X26670000Y21590000D02*
X24130000Y21590000D01*
X24130000Y21590000D02*
X21590000Y21590000D01*
X21590000Y21590000D02*
X19050000Y21590000D01*
X19050000Y21590000D02*
X16510000Y21590000D01*
X16510000Y21590000D02*
X3810000Y21590000D01*
X29210000Y16510000D02*
X29210000Y1270000D01*
X29210000Y1270000D02*
X1270000Y1270000D01*
X1270000Y1270000D02*
X1270000Y1270000D01*
X2070001Y21590000D02*
X3810000Y21590000D01*
X1270000Y1270000D02*
X1270000Y3810000D01*
X1270000Y3810000D02*
X1270000Y21590000D01*
X1270000Y21590000D02*
X3810000Y21590000D01*
G04 #@! TD*
M02*
