G04 #@! TF.GenerationSoftware,KiCad,Pcbnew,(5.0.0)*
G04 #@! TF.CreationDate,2018-08-12T14:19:39+09:00*
G04 #@! TF.ProjectId,sample01,73616D706C6530312E6B696361645F70,rev?*
G04 #@! TF.SameCoordinates,PX40311b0PY3680a30*
G04 #@! TF.FileFunction,Copper,L1,Top,Signal*
G04 #@! TF.FilePolarity,Positive*
%FSLAX46Y46*%
G04 Gerber Fmt 4.6, Leading zero omitted, Abs format (unit mm)*
G04 Created by KiCad (PCBNEW (5.0.0)) date 08/12/18 14:19:39*
%MOMM*%
%LPD*%
G01*
G04 APERTURE LIST*
G04 #@! TA.AperFunction,ComponentPad*
%ADD10R,1.700000X1.700000*%
G04 #@! TD*
G04 #@! TA.AperFunction,ComponentPad*
%ADD11O,1.700000X1.700000*%
G04 #@! TD*
G04 #@! TA.AperFunction,ComponentPad*
%ADD12R,1.800000X1.800000*%
G04 #@! TD*
G04 #@! TA.AperFunction,ComponentPad*
%ADD13C,1.800000*%
G04 #@! TD*
G04 #@! TA.AperFunction,ComponentPad*
%ADD14O,1.050000X1.500000*%
G04 #@! TD*
G04 #@! TA.AperFunction,ComponentPad*
%ADD15R,1.050000X1.500000*%
G04 #@! TD*
G04 #@! TA.AperFunction,ComponentPad*
%ADD16O,1.600000X1.600000*%
G04 #@! TD*
G04 #@! TA.AperFunction,ComponentPad*
%ADD17C,1.600000*%
G04 #@! TD*
G04 #@! TA.AperFunction,ComponentPad*
%ADD18C,2.000000*%
G04 #@! TD*
G04 #@! TA.AperFunction,ViaPad*
%ADD19C,0.800000*%
G04 #@! TD*
G04 #@! TA.AperFunction,Conductor*
%ADD20C,0.250000*%
G04 #@! TD*
G04 #@! TA.AperFunction,Conductor*
%ADD21C,0.400000*%
G04 #@! TD*
G04 #@! TA.AperFunction,Conductor*
%ADD22C,0.254000*%
G04 #@! TD*
G04 APERTURE END LIST*
D10*
G04 #@! TO.P,J1,1*
G04 #@! TO.N,+5V*
X26670000Y19050000D03*
D11*
G04 #@! TO.P,J1,2*
G04 #@! TO.N,GND*
X26670000Y16510000D03*
G04 #@! TD*
D12*
G04 #@! TO.P,D1,1*
G04 #@! TO.N,Net-(D1-Pad1)*
X6350000Y11430000D03*
D13*
G04 #@! TO.P,D1,2*
G04 #@! TO.N,Net-(D1-Pad2)*
X6350000Y13970000D03*
G04 #@! TD*
D14*
G04 #@! TO.P,Q1,2*
G04 #@! TO.N,Net-(D1-Pad1)*
X6350000Y3810000D03*
G04 #@! TO.P,Q1,3*
G04 #@! TO.N,Net-(Q1-Pad3)*
X7620000Y3810000D03*
D15*
G04 #@! TO.P,Q1,1*
G04 #@! TO.N,GND*
X5080000Y3810000D03*
G04 #@! TD*
D16*
G04 #@! TO.P,R1,2*
G04 #@! TO.N,Net-(R1-Pad2)*
X21590000Y3810000D03*
D17*
G04 #@! TO.P,R1,1*
G04 #@! TO.N,Net-(Q1-Pad3)*
X11430000Y3810000D03*
G04 #@! TD*
G04 #@! TO.P,R2,1*
G04 #@! TO.N,+5V*
X21590000Y19050000D03*
D16*
G04 #@! TO.P,R2,2*
G04 #@! TO.N,Net-(D1-Pad2)*
X11430000Y19050000D03*
G04 #@! TD*
D18*
G04 #@! TO.P,SW1,2*
G04 #@! TO.N,Net-(R1-Pad2)*
X15240000Y9470000D03*
G04 #@! TO.P,SW1,1*
G04 #@! TO.N,+5V*
X15240000Y13970000D03*
G04 #@! TO.P,SW1,2*
G04 #@! TO.N,Net-(R1-Pad2)*
X21740000Y9470000D03*
G04 #@! TO.P,SW1,1*
G04 #@! TO.N,+5V*
X21740000Y13970000D03*
G04 #@! TD*
D19*
G04 #@! TO.N,GND*
X1270000Y3810000D03*
X1270000Y6350000D03*
X1270000Y8890000D03*
X1270000Y11430000D03*
X1270000Y13970000D03*
X1270000Y16510000D03*
X1270000Y19050000D03*
X1270000Y21590000D03*
X29210000Y21590000D03*
X26670000Y21590000D03*
X24130000Y21590000D03*
X21590000Y21590000D03*
X19050000Y21590000D03*
X16510000Y21590000D03*
X13970000Y21590000D03*
X11430000Y21590000D03*
X8890000Y21590000D03*
X6350000Y21590000D03*
X3810000Y21590000D03*
X3810000Y1270000D03*
X6350000Y1270000D03*
X8890000Y1270000D03*
X11430000Y1270000D03*
X13970000Y1270000D03*
X16510000Y1270000D03*
X19050000Y1270000D03*
X21590000Y1270000D03*
X24130000Y1270000D03*
X26670000Y1270000D03*
X29210000Y1270000D03*
X29210000Y3810000D03*
X29210000Y6350000D03*
X29210000Y8890000D03*
X29210000Y11430000D03*
X29210000Y13970000D03*
X29210000Y16510000D03*
X29210000Y19050000D03*
X1270000Y1270000D03*
G04 #@! TD*
D20*
G04 #@! TO.N,Net-(D1-Pad1)*
X6350000Y11430000D02*
X6350000Y3810000D01*
G04 #@! TO.N,Net-(D1-Pad2)*
X11430000Y19050000D02*
X6350000Y13970000D01*
G04 #@! TO.N,Net-(Q1-Pad3)*
X7620000Y3810000D02*
X11430000Y3810000D01*
G04 #@! TO.N,Net-(R1-Pad2)*
X21590000Y9320000D02*
X21740000Y9470000D01*
X21590000Y3810000D02*
X21590000Y9320000D01*
X20325787Y9470000D02*
X15240000Y9470000D01*
X21740000Y9470000D02*
X20325787Y9470000D01*
D21*
G04 #@! TO.N,+5V*
X26670000Y19050000D02*
X21590000Y19050000D01*
X21590000Y14120000D02*
X21740000Y13970000D01*
X21590000Y19050000D02*
X21590000Y14120000D01*
X21740000Y13970000D02*
X15240000Y13970000D01*
G04 #@! TD*
D22*
G04 #@! TO.N,GND*
G36*
X29770001Y710000D02*
X710000Y710000D01*
X710000Y3524250D01*
X3920000Y3524250D01*
X3920000Y2933690D01*
X4016673Y2700301D01*
X4195302Y2521673D01*
X4428691Y2425000D01*
X4794250Y2425000D01*
X4953000Y2583750D01*
X4953000Y3683000D01*
X4078750Y3683000D01*
X3920000Y3524250D01*
X710000Y3524250D01*
X710000Y4686310D01*
X3920000Y4686310D01*
X3920000Y4095750D01*
X4078750Y3937000D01*
X4953000Y3937000D01*
X4953000Y5036250D01*
X4794250Y5195000D01*
X4428691Y5195000D01*
X4195302Y5098327D01*
X4016673Y4919699D01*
X3920000Y4686310D01*
X710000Y4686310D01*
X710000Y12330000D01*
X4802560Y12330000D01*
X4802560Y10530000D01*
X4851843Y10282235D01*
X4992191Y10072191D01*
X5202235Y9931843D01*
X5450000Y9882560D01*
X5590000Y9882560D01*
X5590001Y5195000D01*
X5365750Y5195000D01*
X5207000Y5036250D01*
X5207000Y4234709D01*
X5190000Y4149245D01*
X5190000Y3470754D01*
X5207000Y3385290D01*
X5207000Y2583750D01*
X5365750Y2425000D01*
X5731309Y2425000D01*
X5896016Y2493224D01*
X5897392Y2492305D01*
X6350000Y2402275D01*
X6802609Y2492305D01*
X6985000Y2614175D01*
X7167392Y2492305D01*
X7620000Y2402275D01*
X8072609Y2492305D01*
X8456313Y2748687D01*
X8657643Y3050000D01*
X10191570Y3050000D01*
X10213466Y2997138D01*
X10617138Y2593466D01*
X11144561Y2375000D01*
X11715439Y2375000D01*
X12242862Y2593466D01*
X12646534Y2997138D01*
X12865000Y3524561D01*
X12865000Y4095439D01*
X12646534Y4622862D01*
X12242862Y5026534D01*
X11715439Y5245000D01*
X11144561Y5245000D01*
X10617138Y5026534D01*
X10213466Y4622862D01*
X10191570Y4570000D01*
X8657643Y4570000D01*
X8456313Y4871313D01*
X8072608Y5127695D01*
X7620000Y5217725D01*
X7167391Y5127695D01*
X7110000Y5089348D01*
X7110000Y9795222D01*
X13605000Y9795222D01*
X13605000Y9144778D01*
X13853914Y8543847D01*
X14313847Y8083914D01*
X14914778Y7835000D01*
X15565222Y7835000D01*
X16166153Y8083914D01*
X16626086Y8543847D01*
X16694909Y8710000D01*
X20285091Y8710000D01*
X20353914Y8543847D01*
X20813847Y8083914D01*
X20830001Y8077223D01*
X20830000Y5028044D01*
X20555423Y4844577D01*
X20238260Y4369909D01*
X20126887Y3810000D01*
X20238260Y3250091D01*
X20555423Y2775423D01*
X21030091Y2458260D01*
X21448667Y2375000D01*
X21731333Y2375000D01*
X22149909Y2458260D01*
X22624577Y2775423D01*
X22941740Y3250091D01*
X23053113Y3810000D01*
X22941740Y4369909D01*
X22624577Y4844577D01*
X22350000Y5028043D01*
X22350000Y7952959D01*
X22666153Y8083914D01*
X23126086Y8543847D01*
X23375000Y9144778D01*
X23375000Y9795222D01*
X23126086Y10396153D01*
X22666153Y10856086D01*
X22065222Y11105000D01*
X21414778Y11105000D01*
X20813847Y10856086D01*
X20353914Y10396153D01*
X20285091Y10230000D01*
X16694909Y10230000D01*
X16626086Y10396153D01*
X16166153Y10856086D01*
X15565222Y11105000D01*
X14914778Y11105000D01*
X14313847Y10856086D01*
X13853914Y10396153D01*
X13605000Y9795222D01*
X7110000Y9795222D01*
X7110000Y9882560D01*
X7250000Y9882560D01*
X7497765Y9931843D01*
X7707809Y10072191D01*
X7848157Y10282235D01*
X7897440Y10530000D01*
X7897440Y12330000D01*
X7848157Y12577765D01*
X7707809Y12787809D01*
X7497765Y12928157D01*
X7482092Y12931275D01*
X7651310Y13100493D01*
X7885000Y13664670D01*
X7885000Y14275330D01*
X7876761Y14295222D01*
X13605000Y14295222D01*
X13605000Y13644778D01*
X13853914Y13043847D01*
X14313847Y12583914D01*
X14914778Y12335000D01*
X15565222Y12335000D01*
X16166153Y12583914D01*
X16626086Y13043847D01*
X16663843Y13135000D01*
X20316157Y13135000D01*
X20353914Y13043847D01*
X20813847Y12583914D01*
X21414778Y12335000D01*
X22065222Y12335000D01*
X22666153Y12583914D01*
X23126086Y13043847D01*
X23375000Y13644778D01*
X23375000Y14295222D01*
X23126086Y14896153D01*
X22666153Y15356086D01*
X22425000Y15455975D01*
X22425000Y16153110D01*
X25228524Y16153110D01*
X25398355Y15743076D01*
X25788642Y15314817D01*
X26313108Y15068514D01*
X26543000Y15189181D01*
X26543000Y16383000D01*
X26797000Y16383000D01*
X26797000Y15189181D01*
X27026892Y15068514D01*
X27551358Y15314817D01*
X27941645Y15743076D01*
X28111476Y16153110D01*
X27990155Y16383000D01*
X26797000Y16383000D01*
X26543000Y16383000D01*
X25349845Y16383000D01*
X25228524Y16153110D01*
X22425000Y16153110D01*
X22425000Y17855604D01*
X22784396Y18215000D01*
X25172560Y18215000D01*
X25172560Y18200000D01*
X25221843Y17952235D01*
X25362191Y17742191D01*
X25572235Y17601843D01*
X25675708Y17581261D01*
X25398355Y17276924D01*
X25228524Y16866890D01*
X25349845Y16637000D01*
X26543000Y16637000D01*
X26543000Y16657000D01*
X26797000Y16657000D01*
X26797000Y16637000D01*
X27990155Y16637000D01*
X28111476Y16866890D01*
X27941645Y17276924D01*
X27664292Y17581261D01*
X27767765Y17601843D01*
X27977809Y17742191D01*
X28118157Y17952235D01*
X28167440Y18200000D01*
X28167440Y19900000D01*
X28118157Y20147765D01*
X27977809Y20357809D01*
X27767765Y20498157D01*
X27520000Y20547440D01*
X25820000Y20547440D01*
X25572235Y20498157D01*
X25362191Y20357809D01*
X25221843Y20147765D01*
X25172560Y19900000D01*
X25172560Y19885000D01*
X22784396Y19885000D01*
X22402862Y20266534D01*
X21875439Y20485000D01*
X21304561Y20485000D01*
X20777138Y20266534D01*
X20373466Y19862862D01*
X20155000Y19335439D01*
X20155000Y18764561D01*
X20373466Y18237138D01*
X20755000Y17855604D01*
X20755001Y15297240D01*
X20353914Y14896153D01*
X20316157Y14805000D01*
X16663843Y14805000D01*
X16626086Y14896153D01*
X16166153Y15356086D01*
X15565222Y15605000D01*
X14914778Y15605000D01*
X14313847Y15356086D01*
X13853914Y14896153D01*
X13605000Y14295222D01*
X7876761Y14295222D01*
X7839640Y14384839D01*
X11106114Y17651312D01*
X11288667Y17615000D01*
X11571333Y17615000D01*
X11989909Y17698260D01*
X12464577Y18015423D01*
X12781740Y18490091D01*
X12893113Y19050000D01*
X12781740Y19609909D01*
X12464577Y20084577D01*
X11989909Y20401740D01*
X11571333Y20485000D01*
X11288667Y20485000D01*
X10870091Y20401740D01*
X10395423Y20084577D01*
X10078260Y19609909D01*
X9966887Y19050000D01*
X10031312Y18726114D01*
X6764839Y15459640D01*
X6655330Y15505000D01*
X6044670Y15505000D01*
X5480493Y15271310D01*
X5048690Y14839507D01*
X4815000Y14275330D01*
X4815000Y13664670D01*
X5048690Y13100493D01*
X5217908Y12931275D01*
X5202235Y12928157D01*
X4992191Y12787809D01*
X4851843Y12577765D01*
X4802560Y12330000D01*
X710000Y12330000D01*
X710000Y22150000D01*
X29770000Y22150000D01*
X29770001Y710000D01*
X29770001Y710000D01*
G37*
X29770001Y710000D02*
X710000Y710000D01*
X710000Y3524250D01*
X3920000Y3524250D01*
X3920000Y2933690D01*
X4016673Y2700301D01*
X4195302Y2521673D01*
X4428691Y2425000D01*
X4794250Y2425000D01*
X4953000Y2583750D01*
X4953000Y3683000D01*
X4078750Y3683000D01*
X3920000Y3524250D01*
X710000Y3524250D01*
X710000Y4686310D01*
X3920000Y4686310D01*
X3920000Y4095750D01*
X4078750Y3937000D01*
X4953000Y3937000D01*
X4953000Y5036250D01*
X4794250Y5195000D01*
X4428691Y5195000D01*
X4195302Y5098327D01*
X4016673Y4919699D01*
X3920000Y4686310D01*
X710000Y4686310D01*
X710000Y12330000D01*
X4802560Y12330000D01*
X4802560Y10530000D01*
X4851843Y10282235D01*
X4992191Y10072191D01*
X5202235Y9931843D01*
X5450000Y9882560D01*
X5590000Y9882560D01*
X5590001Y5195000D01*
X5365750Y5195000D01*
X5207000Y5036250D01*
X5207000Y4234709D01*
X5190000Y4149245D01*
X5190000Y3470754D01*
X5207000Y3385290D01*
X5207000Y2583750D01*
X5365750Y2425000D01*
X5731309Y2425000D01*
X5896016Y2493224D01*
X5897392Y2492305D01*
X6350000Y2402275D01*
X6802609Y2492305D01*
X6985000Y2614175D01*
X7167392Y2492305D01*
X7620000Y2402275D01*
X8072609Y2492305D01*
X8456313Y2748687D01*
X8657643Y3050000D01*
X10191570Y3050000D01*
X10213466Y2997138D01*
X10617138Y2593466D01*
X11144561Y2375000D01*
X11715439Y2375000D01*
X12242862Y2593466D01*
X12646534Y2997138D01*
X12865000Y3524561D01*
X12865000Y4095439D01*
X12646534Y4622862D01*
X12242862Y5026534D01*
X11715439Y5245000D01*
X11144561Y5245000D01*
X10617138Y5026534D01*
X10213466Y4622862D01*
X10191570Y4570000D01*
X8657643Y4570000D01*
X8456313Y4871313D01*
X8072608Y5127695D01*
X7620000Y5217725D01*
X7167391Y5127695D01*
X7110000Y5089348D01*
X7110000Y9795222D01*
X13605000Y9795222D01*
X13605000Y9144778D01*
X13853914Y8543847D01*
X14313847Y8083914D01*
X14914778Y7835000D01*
X15565222Y7835000D01*
X16166153Y8083914D01*
X16626086Y8543847D01*
X16694909Y8710000D01*
X20285091Y8710000D01*
X20353914Y8543847D01*
X20813847Y8083914D01*
X20830001Y8077223D01*
X20830000Y5028044D01*
X20555423Y4844577D01*
X20238260Y4369909D01*
X20126887Y3810000D01*
X20238260Y3250091D01*
X20555423Y2775423D01*
X21030091Y2458260D01*
X21448667Y2375000D01*
X21731333Y2375000D01*
X22149909Y2458260D01*
X22624577Y2775423D01*
X22941740Y3250091D01*
X23053113Y3810000D01*
X22941740Y4369909D01*
X22624577Y4844577D01*
X22350000Y5028043D01*
X22350000Y7952959D01*
X22666153Y8083914D01*
X23126086Y8543847D01*
X23375000Y9144778D01*
X23375000Y9795222D01*
X23126086Y10396153D01*
X22666153Y10856086D01*
X22065222Y11105000D01*
X21414778Y11105000D01*
X20813847Y10856086D01*
X20353914Y10396153D01*
X20285091Y10230000D01*
X16694909Y10230000D01*
X16626086Y10396153D01*
X16166153Y10856086D01*
X15565222Y11105000D01*
X14914778Y11105000D01*
X14313847Y10856086D01*
X13853914Y10396153D01*
X13605000Y9795222D01*
X7110000Y9795222D01*
X7110000Y9882560D01*
X7250000Y9882560D01*
X7497765Y9931843D01*
X7707809Y10072191D01*
X7848157Y10282235D01*
X7897440Y10530000D01*
X7897440Y12330000D01*
X7848157Y12577765D01*
X7707809Y12787809D01*
X7497765Y12928157D01*
X7482092Y12931275D01*
X7651310Y13100493D01*
X7885000Y13664670D01*
X7885000Y14275330D01*
X7876761Y14295222D01*
X13605000Y14295222D01*
X13605000Y13644778D01*
X13853914Y13043847D01*
X14313847Y12583914D01*
X14914778Y12335000D01*
X15565222Y12335000D01*
X16166153Y12583914D01*
X16626086Y13043847D01*
X16663843Y13135000D01*
X20316157Y13135000D01*
X20353914Y13043847D01*
X20813847Y12583914D01*
X21414778Y12335000D01*
X22065222Y12335000D01*
X22666153Y12583914D01*
X23126086Y13043847D01*
X23375000Y13644778D01*
X23375000Y14295222D01*
X23126086Y14896153D01*
X22666153Y15356086D01*
X22425000Y15455975D01*
X22425000Y16153110D01*
X25228524Y16153110D01*
X25398355Y15743076D01*
X25788642Y15314817D01*
X26313108Y15068514D01*
X26543000Y15189181D01*
X26543000Y16383000D01*
X26797000Y16383000D01*
X26797000Y15189181D01*
X27026892Y15068514D01*
X27551358Y15314817D01*
X27941645Y15743076D01*
X28111476Y16153110D01*
X27990155Y16383000D01*
X26797000Y16383000D01*
X26543000Y16383000D01*
X25349845Y16383000D01*
X25228524Y16153110D01*
X22425000Y16153110D01*
X22425000Y17855604D01*
X22784396Y18215000D01*
X25172560Y18215000D01*
X25172560Y18200000D01*
X25221843Y17952235D01*
X25362191Y17742191D01*
X25572235Y17601843D01*
X25675708Y17581261D01*
X25398355Y17276924D01*
X25228524Y16866890D01*
X25349845Y16637000D01*
X26543000Y16637000D01*
X26543000Y16657000D01*
X26797000Y16657000D01*
X26797000Y16637000D01*
X27990155Y16637000D01*
X28111476Y16866890D01*
X27941645Y17276924D01*
X27664292Y17581261D01*
X27767765Y17601843D01*
X27977809Y17742191D01*
X28118157Y17952235D01*
X28167440Y18200000D01*
X28167440Y19900000D01*
X28118157Y20147765D01*
X27977809Y20357809D01*
X27767765Y20498157D01*
X27520000Y20547440D01*
X25820000Y20547440D01*
X25572235Y20498157D01*
X25362191Y20357809D01*
X25221843Y20147765D01*
X25172560Y19900000D01*
X25172560Y19885000D01*
X22784396Y19885000D01*
X22402862Y20266534D01*
X21875439Y20485000D01*
X21304561Y20485000D01*
X20777138Y20266534D01*
X20373466Y19862862D01*
X20155000Y19335439D01*
X20155000Y18764561D01*
X20373466Y18237138D01*
X20755000Y17855604D01*
X20755001Y15297240D01*
X20353914Y14896153D01*
X20316157Y14805000D01*
X16663843Y14805000D01*
X16626086Y14896153D01*
X16166153Y15356086D01*
X15565222Y15605000D01*
X14914778Y15605000D01*
X14313847Y15356086D01*
X13853914Y14896153D01*
X13605000Y14295222D01*
X7876761Y14295222D01*
X7839640Y14384839D01*
X11106114Y17651312D01*
X11288667Y17615000D01*
X11571333Y17615000D01*
X11989909Y17698260D01*
X12464577Y18015423D01*
X12781740Y18490091D01*
X12893113Y19050000D01*
X12781740Y19609909D01*
X12464577Y20084577D01*
X11989909Y20401740D01*
X11571333Y20485000D01*
X11288667Y20485000D01*
X10870091Y20401740D01*
X10395423Y20084577D01*
X10078260Y19609909D01*
X9966887Y19050000D01*
X10031312Y18726114D01*
X6764839Y15459640D01*
X6655330Y15505000D01*
X6044670Y15505000D01*
X5480493Y15271310D01*
X5048690Y14839507D01*
X4815000Y14275330D01*
X4815000Y13664670D01*
X5048690Y13100493D01*
X5217908Y12931275D01*
X5202235Y12928157D01*
X4992191Y12787809D01*
X4851843Y12577765D01*
X4802560Y12330000D01*
X710000Y12330000D01*
X710000Y22150000D01*
X29770000Y22150000D01*
X29770001Y710000D01*
G04 #@! TD*
M02*
