G04 #@! TF.GenerationSoftware,KiCad,Pcbnew,(5.0.0)*
G04 #@! TF.CreationDate,2018-07-25T00:29:33+09:00*
G04 #@! TF.ProjectId,sample01,73616D706C6530312E6B696361645F70,rev?*
G04 #@! TF.SameCoordinates,PX40311b0PY3680a30*
G04 #@! TF.FileFunction,Legend,Top*
G04 #@! TF.FilePolarity,Positive*
%FSLAX46Y46*%
G04 Gerber Fmt 4.6, Leading zero omitted, Abs format (unit mm)*
G04 Created by KiCad (PCBNEW (5.0.0)) date 07/25/18 00:29:33*
%MOMM*%
%LPD*%
G01*
G04 APERTURE LIST*
%ADD10C,0.300000*%
%ADD11C,0.150000*%
%ADD12C,0.120000*%
%ADD13R,2.100000X2.100000*%
%ADD14O,2.100000X2.100000*%
%ADD15R,2.200000X2.200000*%
%ADD16C,2.200000*%
%ADD17O,1.450000X1.900000*%
%ADD18R,1.450000X1.900000*%
%ADD19O,2.000000X2.000000*%
%ADD20C,2.000000*%
%ADD21C,2.400000*%
G04 APERTURE END LIST*
D10*
X8954285Y-5088571D02*
X9882857Y-5088571D01*
X9382857Y-5660000D01*
X9597142Y-5660000D01*
X9740000Y-5731428D01*
X9811428Y-5802857D01*
X9882857Y-5945714D01*
X9882857Y-6302857D01*
X9811428Y-6445714D01*
X9740000Y-6517142D01*
X9597142Y-6588571D01*
X9168571Y-6588571D01*
X9025714Y-6517142D01*
X8954285Y-6445714D01*
X10811428Y-5088571D02*
X10954285Y-5088571D01*
X11097142Y-5160000D01*
X11168571Y-5231428D01*
X11240000Y-5374285D01*
X11311428Y-5660000D01*
X11311428Y-6017142D01*
X11240000Y-6302857D01*
X11168571Y-6445714D01*
X11097142Y-6517142D01*
X10954285Y-6588571D01*
X10811428Y-6588571D01*
X10668571Y-6517142D01*
X10597142Y-6445714D01*
X10525714Y-6302857D01*
X10454285Y-6017142D01*
X10454285Y-5660000D01*
X10525714Y-5374285D01*
X10597142Y-5231428D01*
X10668571Y-5160000D01*
X10811428Y-5088571D01*
X11954285Y-6445714D02*
X12025714Y-6517142D01*
X11954285Y-6588571D01*
X11882857Y-6517142D01*
X11954285Y-6445714D01*
X11954285Y-6588571D01*
X13311428Y-5588571D02*
X13311428Y-6588571D01*
X12954285Y-5017142D02*
X12597142Y-6088571D01*
X13525714Y-6088571D01*
X14311428Y-5731428D02*
X14168571Y-5660000D01*
X14097142Y-5588571D01*
X14025714Y-5445714D01*
X14025714Y-5374285D01*
X14097142Y-5231428D01*
X14168571Y-5160000D01*
X14311428Y-5088571D01*
X14597142Y-5088571D01*
X14740000Y-5160000D01*
X14811428Y-5231428D01*
X14882857Y-5374285D01*
X14882857Y-5445714D01*
X14811428Y-5588571D01*
X14740000Y-5660000D01*
X14597142Y-5731428D01*
X14311428Y-5731428D01*
X14168571Y-5802857D01*
X14097142Y-5874285D01*
X14025714Y-6017142D01*
X14025714Y-6302857D01*
X14097142Y-6445714D01*
X14168571Y-6517142D01*
X14311428Y-6588571D01*
X14597142Y-6588571D01*
X14740000Y-6517142D01*
X14811428Y-6445714D01*
X14882857Y-6302857D01*
X14882857Y-6017142D01*
X14811428Y-5874285D01*
X14740000Y-5802857D01*
X14597142Y-5731428D01*
X15811428Y-5088571D02*
X15954285Y-5088571D01*
X16097142Y-5160000D01*
X16168571Y-5231428D01*
X16240000Y-5374285D01*
X16311428Y-5660000D01*
X16311428Y-6017142D01*
X16240000Y-6302857D01*
X16168571Y-6445714D01*
X16097142Y-6517142D01*
X15954285Y-6588571D01*
X15811428Y-6588571D01*
X15668571Y-6517142D01*
X15597142Y-6445714D01*
X15525714Y-6302857D01*
X15454285Y-6017142D01*
X15454285Y-5660000D01*
X15525714Y-5374285D01*
X15597142Y-5231428D01*
X15668571Y-5160000D01*
X15811428Y-5088571D01*
X18097142Y-6588571D02*
X18097142Y-5588571D01*
X18097142Y-5731428D02*
X18168571Y-5660000D01*
X18311428Y-5588571D01*
X18525714Y-5588571D01*
X18668571Y-5660000D01*
X18740000Y-5802857D01*
X18740000Y-6588571D01*
X18740000Y-5802857D02*
X18811428Y-5660000D01*
X18954285Y-5588571D01*
X19168571Y-5588571D01*
X19311428Y-5660000D01*
X19382857Y-5802857D01*
X19382857Y-6588571D01*
X20097142Y-6588571D02*
X20097142Y-5588571D01*
X20097142Y-5731428D02*
X20168571Y-5660000D01*
X20311428Y-5588571D01*
X20525714Y-5588571D01*
X20668571Y-5660000D01*
X20740000Y-5802857D01*
X20740000Y-6588571D01*
X20740000Y-5802857D02*
X20811428Y-5660000D01*
X20954285Y-5588571D01*
X21168571Y-5588571D01*
X21311428Y-5660000D01*
X21382857Y-5802857D01*
X21382857Y-6588571D01*
X30480000Y-3810000D02*
X0Y-3810000D01*
X30480000Y0D02*
X30480000Y-4396421D01*
X0Y0D02*
X0Y-4396421D01*
X0Y-3810000D02*
X1126504Y-3223579D01*
X0Y-3810000D02*
X1126504Y-4396421D01*
X30480000Y-3810000D02*
X29353496Y-3223579D01*
X30480000Y-3810000D02*
X29353496Y-4396421D01*
X39608571Y17644286D02*
X39680000Y17572858D01*
X39751428Y17430000D01*
X39751428Y17072858D01*
X39680000Y16930000D01*
X39608571Y16858572D01*
X39465714Y16787143D01*
X39322857Y16787143D01*
X39108571Y16858572D01*
X38251428Y17715715D01*
X38251428Y16787143D01*
X39608571Y16215715D02*
X39680000Y16144286D01*
X39751428Y16001429D01*
X39751428Y15644286D01*
X39680000Y15501429D01*
X39608571Y15430000D01*
X39465714Y15358572D01*
X39322857Y15358572D01*
X39108571Y15430000D01*
X38251428Y16287143D01*
X38251428Y15358572D01*
X38394285Y14715715D02*
X38322857Y14644286D01*
X38251428Y14715715D01*
X38322857Y14787143D01*
X38394285Y14715715D01*
X38251428Y14715715D01*
X39108571Y13787143D02*
X39180000Y13930000D01*
X39251428Y14001429D01*
X39394285Y14072858D01*
X39465714Y14072858D01*
X39608571Y14001429D01*
X39680000Y13930000D01*
X39751428Y13787143D01*
X39751428Y13501429D01*
X39680000Y13358572D01*
X39608571Y13287143D01*
X39465714Y13215715D01*
X39394285Y13215715D01*
X39251428Y13287143D01*
X39180000Y13358572D01*
X39108571Y13501429D01*
X39108571Y13787143D01*
X39037142Y13930000D01*
X38965714Y14001429D01*
X38822857Y14072858D01*
X38537142Y14072858D01*
X38394285Y14001429D01*
X38322857Y13930000D01*
X38251428Y13787143D01*
X38251428Y13501429D01*
X38322857Y13358572D01*
X38394285Y13287143D01*
X38537142Y13215715D01*
X38822857Y13215715D01*
X38965714Y13287143D01*
X39037142Y13358572D01*
X39108571Y13501429D01*
X39751428Y11930000D02*
X39751428Y12215715D01*
X39680000Y12358572D01*
X39608571Y12430000D01*
X39394285Y12572858D01*
X39108571Y12644286D01*
X38537142Y12644286D01*
X38394285Y12572858D01*
X38322857Y12501429D01*
X38251428Y12358572D01*
X38251428Y12072858D01*
X38322857Y11930000D01*
X38394285Y11858572D01*
X38537142Y11787143D01*
X38894285Y11787143D01*
X39037142Y11858572D01*
X39108571Y11930000D01*
X39180000Y12072858D01*
X39180000Y12358572D01*
X39108571Y12501429D01*
X39037142Y12572858D01*
X38894285Y12644286D01*
X39751428Y10858572D02*
X39751428Y10715715D01*
X39680000Y10572858D01*
X39608571Y10501429D01*
X39465714Y10430000D01*
X39180000Y10358572D01*
X38822857Y10358572D01*
X38537142Y10430000D01*
X38394285Y10501429D01*
X38322857Y10572858D01*
X38251428Y10715715D01*
X38251428Y10858572D01*
X38322857Y11001429D01*
X38394285Y11072858D01*
X38537142Y11144286D01*
X38822857Y11215715D01*
X39180000Y11215715D01*
X39465714Y11144286D01*
X39608571Y11072858D01*
X39680000Y11001429D01*
X39751428Y10858572D01*
X38251428Y8572858D02*
X39251428Y8572858D01*
X39108571Y8572858D02*
X39180000Y8501429D01*
X39251428Y8358572D01*
X39251428Y8144286D01*
X39180000Y8001429D01*
X39037142Y7930000D01*
X38251428Y7930000D01*
X39037142Y7930000D02*
X39180000Y7858572D01*
X39251428Y7715715D01*
X39251428Y7501429D01*
X39180000Y7358572D01*
X39037142Y7287143D01*
X38251428Y7287143D01*
X38251428Y6572858D02*
X39251428Y6572858D01*
X39108571Y6572858D02*
X39180000Y6501429D01*
X39251428Y6358572D01*
X39251428Y6144286D01*
X39180000Y6001429D01*
X39037142Y5930000D01*
X38251428Y5930000D01*
X39037142Y5930000D02*
X39180000Y5858572D01*
X39251428Y5715715D01*
X39251428Y5501429D01*
X39180000Y5358572D01*
X39037142Y5287143D01*
X38251428Y5287143D01*
X36830000Y22860000D02*
X36830000Y0D01*
X30480000Y22860000D02*
X37416421Y22860000D01*
X30480000Y0D02*
X37416421Y0D01*
X36830000Y0D02*
X36243579Y1126504D01*
X36830000Y0D02*
X37416421Y1126504D01*
X36830000Y22860000D02*
X36243579Y21733496D01*
X36830000Y22860000D02*
X37416421Y21733496D01*
D11*
X29019523Y19597620D02*
X28543333Y19597620D01*
X28495714Y19121429D01*
X28543333Y19169048D01*
X28638571Y19216667D01*
X28876666Y19216667D01*
X28971904Y19169048D01*
X29019523Y19121429D01*
X29067142Y19026191D01*
X29067142Y18788096D01*
X29019523Y18692858D01*
X28971904Y18645239D01*
X28876666Y18597620D01*
X28638571Y18597620D01*
X28543333Y18645239D01*
X28495714Y18692858D01*
X29352857Y19597620D02*
X29686190Y18597620D01*
X30019523Y19597620D01*
D12*
G04 #@! TO.C,J1*
X25340000Y15180000D02*
X28000000Y15180000D01*
X25340000Y17780000D02*
X25340000Y15180000D01*
X28000000Y17780000D02*
X28000000Y15180000D01*
X25340000Y17780000D02*
X28000000Y17780000D01*
X25340000Y19050000D02*
X25340000Y20380000D01*
X25340000Y20380000D02*
X26670000Y20380000D01*
G04 #@! TO.C,D1*
X6350462Y15690000D02*
G75*
G03X4805170Y10140000I-462J-2990000D01*
G01*
X6349538Y15690000D02*
G75*
G02X7894830Y10140000I462J-2990000D01*
G01*
X8850000Y12700000D02*
G75*
G03X8850000Y12700000I-2500000J0D01*
G01*
X4805000Y10140000D02*
X7895000Y10140000D01*
G04 #@! TO.C,Q1*
X4550000Y1960000D02*
X8150000Y1960000D01*
X4511522Y1971522D02*
G75*
G02X6350000Y6410000I1838478J1838478D01*
G01*
X8188478Y1971522D02*
G75*
G03X6350000Y6410000I-1838478J1838478D01*
G01*
G04 #@! TO.C,R1*
X20550000Y3810000D02*
X19780000Y3810000D01*
X12470000Y3810000D02*
X13240000Y3810000D01*
X19780000Y5180000D02*
X13240000Y5180000D01*
X19780000Y2440000D02*
X19780000Y5180000D01*
X13240000Y2440000D02*
X19780000Y2440000D01*
X13240000Y5180000D02*
X13240000Y2440000D01*
G04 #@! TO.C,R2*
X19780000Y17680000D02*
X19780000Y20420000D01*
X19780000Y20420000D02*
X13240000Y20420000D01*
X13240000Y20420000D02*
X13240000Y17680000D01*
X13240000Y17680000D02*
X19780000Y17680000D01*
X20550000Y19050000D02*
X19780000Y19050000D01*
X12470000Y19050000D02*
X13240000Y19050000D01*
G04 #@! TO.C,SW1*
X16240000Y8470000D02*
X20740000Y8470000D01*
X14990000Y12470000D02*
X14990000Y10970000D01*
X20740000Y14970000D02*
X16240000Y14970000D01*
X21990000Y10970000D02*
X21990000Y12470000D01*
G04 #@! TO.C,J1*
D11*
X26336666Y21927620D02*
X26336666Y21213334D01*
X26289047Y21070477D01*
X26193809Y20975239D01*
X26050952Y20927620D01*
X25955714Y20927620D01*
X27336666Y20927620D02*
X26765238Y20927620D01*
X27050952Y20927620D02*
X27050952Y21927620D01*
X26955714Y21784762D01*
X26860476Y21689524D01*
X26765238Y21641905D01*
G04 #@! TO.C,D1*
X2842380Y11961905D02*
X1842380Y11961905D01*
X1842380Y12200000D01*
X1890000Y12342858D01*
X1985238Y12438096D01*
X2080476Y12485715D01*
X2270952Y12533334D01*
X2413809Y12533334D01*
X2604285Y12485715D01*
X2699523Y12438096D01*
X2794761Y12342858D01*
X2842380Y12200000D01*
X2842380Y11961905D01*
X2842380Y13485715D02*
X2842380Y12914286D01*
X2842380Y13200000D02*
X1842380Y13200000D01*
X1985238Y13104762D01*
X2080476Y13009524D01*
X2128095Y12914286D01*
G04 #@! TO.C,Q1*
X6254761Y6822381D02*
X6159523Y6870000D01*
X6064285Y6965239D01*
X5921428Y7108096D01*
X5826190Y7155715D01*
X5730952Y7155715D01*
X5778571Y6917620D02*
X5683333Y6965239D01*
X5588095Y7060477D01*
X5540476Y7250953D01*
X5540476Y7584286D01*
X5588095Y7774762D01*
X5683333Y7870000D01*
X5778571Y7917620D01*
X5969047Y7917620D01*
X6064285Y7870000D01*
X6159523Y7774762D01*
X6207142Y7584286D01*
X6207142Y7250953D01*
X6159523Y7060477D01*
X6064285Y6965239D01*
X5969047Y6917620D01*
X5778571Y6917620D01*
X7159523Y6917620D02*
X6588095Y6917620D01*
X6873809Y6917620D02*
X6873809Y7917620D01*
X6778571Y7774762D01*
X6683333Y7679524D01*
X6588095Y7631905D01*
G04 #@! TO.C,R1*
X12533333Y5897620D02*
X12200000Y6373810D01*
X11961904Y5897620D02*
X11961904Y6897620D01*
X12342857Y6897620D01*
X12438095Y6850000D01*
X12485714Y6802381D01*
X12533333Y6707143D01*
X12533333Y6564286D01*
X12485714Y6469048D01*
X12438095Y6421429D01*
X12342857Y6373810D01*
X11961904Y6373810D01*
X13485714Y5897620D02*
X12914285Y5897620D01*
X13200000Y5897620D02*
X13200000Y6897620D01*
X13104761Y6754762D01*
X13009523Y6659524D01*
X12914285Y6611905D01*
G04 #@! TO.C,R2*
X12533333Y21137620D02*
X12200000Y21613810D01*
X11961904Y21137620D02*
X11961904Y22137620D01*
X12342857Y22137620D01*
X12438095Y22090000D01*
X12485714Y22042381D01*
X12533333Y21947143D01*
X12533333Y21804286D01*
X12485714Y21709048D01*
X12438095Y21661429D01*
X12342857Y21613810D01*
X11961904Y21613810D01*
X12914285Y22042381D02*
X12961904Y22090000D01*
X13057142Y22137620D01*
X13295238Y22137620D01*
X13390476Y22090000D01*
X13438095Y22042381D01*
X13485714Y21947143D01*
X13485714Y21851905D01*
X13438095Y21709048D01*
X12866666Y21137620D01*
X13485714Y21137620D01*
G04 #@! TO.C,SW1*
X17156666Y15565239D02*
X17299523Y15517620D01*
X17537619Y15517620D01*
X17632857Y15565239D01*
X17680476Y15612858D01*
X17728095Y15708096D01*
X17728095Y15803334D01*
X17680476Y15898572D01*
X17632857Y15946191D01*
X17537619Y15993810D01*
X17347142Y16041429D01*
X17251904Y16089048D01*
X17204285Y16136667D01*
X17156666Y16231905D01*
X17156666Y16327143D01*
X17204285Y16422381D01*
X17251904Y16470000D01*
X17347142Y16517620D01*
X17585238Y16517620D01*
X17728095Y16470000D01*
X18061428Y16517620D02*
X18299523Y15517620D01*
X18490000Y16231905D01*
X18680476Y15517620D01*
X18918571Y16517620D01*
X19823333Y15517620D02*
X19251904Y15517620D01*
X19537619Y15517620D02*
X19537619Y16517620D01*
X19442380Y16374762D01*
X19347142Y16279524D01*
X19251904Y16231905D01*
G04 #@! TD*
%LPC*%
D13*
G04 #@! TO.C,J1*
X26670000Y19050000D03*
D14*
X26670000Y16510000D03*
G04 #@! TD*
D15*
G04 #@! TO.C,D1*
X6350000Y11430000D03*
D16*
X6350000Y13970000D03*
G04 #@! TD*
D17*
G04 #@! TO.C,Q1*
X6350000Y3810000D03*
X7620000Y3810000D03*
D18*
X5080000Y3810000D03*
G04 #@! TD*
D19*
G04 #@! TO.C,R1*
X21590000Y3810000D03*
D20*
X11430000Y3810000D03*
G04 #@! TD*
G04 #@! TO.C,R2*
X21590000Y19050000D03*
D19*
X11430000Y19050000D03*
G04 #@! TD*
D21*
G04 #@! TO.C,SW1*
X15240000Y9470000D03*
X15240000Y13970000D03*
X21740000Y9470000D03*
X21740000Y13970000D03*
G04 #@! TD*
M02*
