M48
;DRILL file {KiCad (5.0.0)} date 08/12/18 14:20:03
;FORMAT={-:-/ absolute / metric / decimal}
FMAT,2
METRIC,TZ
T1C0.400
T2C0.750
T3C0.800
T4C0.900
T5C1.000
T6C1.100
%
G90
G05
M71
T1
X1.27Y21.59
X1.27Y19.05
X1.27Y16.51
X1.27Y13.97
X1.27Y11.43
X1.27Y8.89
X1.27Y6.35
X1.27Y3.81
X1.27Y1.27
X3.81Y21.59
X3.81Y1.27
X6.35Y21.59
X6.35Y1.27
X8.89Y21.59
X8.89Y1.27
X11.43Y21.59
X11.43Y1.27
X13.97Y21.59
X13.97Y1.27
X16.51Y21.59
X16.51Y1.27
X19.05Y21.59
X19.05Y1.27
X21.59Y21.59
X21.59Y1.27
X24.13Y21.59
X24.13Y1.27
X26.67Y21.59
X26.67Y1.27
X29.21Y21.59
X29.21Y19.05
X29.21Y16.51
X29.21Y13.97
X29.21Y11.43
X29.21Y8.89
X29.21Y6.35
X29.21Y3.81
X29.21Y1.27
T2
X5.08Y3.81
X6.35Y3.81
X7.62Y3.81
T3
X11.43Y19.05
X21.59Y19.05
X11.43Y3.81
X21.59Y3.81
T4
X6.35Y13.97
X6.35Y11.43
T5
X26.67Y19.05
X26.67Y16.51
T6
X15.24Y13.97
X15.24Y9.47
X21.74Y13.97
X21.74Y9.47
T0
M30
