G04 #@! TF.GenerationSoftware,KiCad,Pcbnew,(5.0.0)*
G04 #@! TF.CreationDate,2018-08-12T14:19:39+09:00*
G04 #@! TF.ProjectId,sample01,73616D706C6530312E6B696361645F70,rev?*
G04 #@! TF.SameCoordinates,PX40311b0PY3680a30*
G04 #@! TF.FileFunction,Legend,Top*
G04 #@! TF.FilePolarity,Positive*
%FSLAX46Y46*%
G04 Gerber Fmt 4.6, Leading zero omitted, Abs format (unit mm)*
G04 Created by KiCad (PCBNEW (5.0.0)) date 08/12/18 14:19:39*
%MOMM*%
%LPD*%
G01*
G04 APERTURE LIST*
%ADD10C,0.100000*%
%ADD11C,0.300000*%
%ADD12C,0.150000*%
%ADD13C,0.120000*%
%ADD14R,2.100000X2.100000*%
%ADD15O,2.100000X2.100000*%
%ADD16R,2.200000X2.200000*%
%ADD17C,2.200000*%
%ADD18O,1.450000X1.900000*%
%ADD19R,1.450000X1.900000*%
%ADD20O,2.000000X2.000000*%
%ADD21C,2.000000*%
%ADD22C,2.400000*%
G04 APERTURE END LIST*
D10*
X25177142Y2020000D02*
X25120000Y2077143D01*
X25062857Y2191429D01*
X25062857Y2477143D01*
X25120000Y2591429D01*
X25177142Y2648572D01*
X25291428Y2705715D01*
X25405714Y2705715D01*
X25577142Y2648572D01*
X26262857Y1962858D01*
X26262857Y2705715D01*
X25062857Y3448572D02*
X25062857Y3562858D01*
X25120000Y3677143D01*
X25177142Y3734286D01*
X25291428Y3791429D01*
X25520000Y3848572D01*
X25805714Y3848572D01*
X26034285Y3791429D01*
X26148571Y3734286D01*
X26205714Y3677143D01*
X26262857Y3562858D01*
X26262857Y3448572D01*
X26205714Y3334286D01*
X26148571Y3277143D01*
X26034285Y3220000D01*
X25805714Y3162858D01*
X25520000Y3162858D01*
X25291428Y3220000D01*
X25177142Y3277143D01*
X25120000Y3334286D01*
X25062857Y3448572D01*
X26262857Y4991429D02*
X26262857Y4305715D01*
X26262857Y4648572D02*
X25062857Y4648572D01*
X25234285Y4534286D01*
X25348571Y4420000D01*
X25405714Y4305715D01*
X25577142Y5677143D02*
X25520000Y5562858D01*
X25462857Y5505715D01*
X25348571Y5448572D01*
X25291428Y5448572D01*
X25177142Y5505715D01*
X25120000Y5562858D01*
X25062857Y5677143D01*
X25062857Y5905715D01*
X25120000Y6020000D01*
X25177142Y6077143D01*
X25291428Y6134286D01*
X25348571Y6134286D01*
X25462857Y6077143D01*
X25520000Y6020000D01*
X25577142Y5905715D01*
X25577142Y5677143D01*
X25634285Y5562858D01*
X25691428Y5505715D01*
X25805714Y5448572D01*
X26034285Y5448572D01*
X26148571Y5505715D01*
X26205714Y5562858D01*
X26262857Y5677143D01*
X26262857Y5905715D01*
X26205714Y6020000D01*
X26148571Y6077143D01*
X26034285Y6134286D01*
X25805714Y6134286D01*
X25691428Y6077143D01*
X25634285Y6020000D01*
X25577142Y5905715D01*
X25005714Y7505715D02*
X26548571Y6477143D01*
X25062857Y8134286D02*
X25062857Y8248572D01*
X25120000Y8362858D01*
X25177142Y8420000D01*
X25291428Y8477143D01*
X25520000Y8534286D01*
X25805714Y8534286D01*
X26034285Y8477143D01*
X26148571Y8420000D01*
X26205714Y8362858D01*
X26262857Y8248572D01*
X26262857Y8134286D01*
X26205714Y8020000D01*
X26148571Y7962858D01*
X26034285Y7905715D01*
X25805714Y7848572D01*
X25520000Y7848572D01*
X25291428Y7905715D01*
X25177142Y7962858D01*
X25120000Y8020000D01*
X25062857Y8134286D01*
X25577142Y9220000D02*
X25520000Y9105715D01*
X25462857Y9048572D01*
X25348571Y8991429D01*
X25291428Y8991429D01*
X25177142Y9048572D01*
X25120000Y9105715D01*
X25062857Y9220000D01*
X25062857Y9448572D01*
X25120000Y9562858D01*
X25177142Y9620000D01*
X25291428Y9677143D01*
X25348571Y9677143D01*
X25462857Y9620000D01*
X25520000Y9562858D01*
X25577142Y9448572D01*
X25577142Y9220000D01*
X25634285Y9105715D01*
X25691428Y9048572D01*
X25805714Y8991429D01*
X26034285Y8991429D01*
X26148571Y9048572D01*
X26205714Y9105715D01*
X26262857Y9220000D01*
X26262857Y9448572D01*
X26205714Y9562858D01*
X26148571Y9620000D01*
X26034285Y9677143D01*
X25805714Y9677143D01*
X25691428Y9620000D01*
X25634285Y9562858D01*
X25577142Y9448572D01*
X25005714Y11048572D02*
X26548571Y10020000D01*
X26262857Y12077143D02*
X26262857Y11391429D01*
X26262857Y11734286D02*
X25062857Y11734286D01*
X25234285Y11620000D01*
X25348571Y11505715D01*
X25405714Y11391429D01*
X25177142Y12534286D02*
X25120000Y12591429D01*
X25062857Y12705715D01*
X25062857Y12991429D01*
X25120000Y13105715D01*
X25177142Y13162858D01*
X25291428Y13220000D01*
X25405714Y13220000D01*
X25577142Y13162858D01*
X26262857Y12477143D01*
X26262857Y13220000D01*
X27534285Y2877143D02*
X27591428Y3048572D01*
X27648571Y3105715D01*
X27762857Y3162858D01*
X27934285Y3162858D01*
X28048571Y3105715D01*
X28105714Y3048572D01*
X28162857Y2934286D01*
X28162857Y2477143D01*
X26962857Y2477143D01*
X26962857Y2877143D01*
X27020000Y2991429D01*
X27077142Y3048572D01*
X27191428Y3105715D01*
X27305714Y3105715D01*
X27420000Y3048572D01*
X27477142Y2991429D01*
X27534285Y2877143D01*
X27534285Y2477143D01*
X27362857Y3562858D02*
X28162857Y3848572D01*
X27362857Y4134286D02*
X28162857Y3848572D01*
X28448571Y3734286D01*
X28505714Y3677143D01*
X28562857Y3562858D01*
X27820000Y5448572D02*
X27820000Y6020000D01*
X28162857Y5334286D02*
X26962857Y5734286D01*
X28162857Y6134286D01*
X28162857Y6534286D02*
X26962857Y6534286D01*
X27705714Y6648572D02*
X28162857Y6991429D01*
X27362857Y6991429D02*
X27820000Y6534286D01*
X28162857Y7505715D02*
X27362857Y7505715D01*
X26962857Y7505715D02*
X27020000Y7448572D01*
X27077142Y7505715D01*
X27020000Y7562858D01*
X26962857Y7505715D01*
X27077142Y7505715D01*
X28162857Y8077143D02*
X27362857Y8077143D01*
X27591428Y8077143D02*
X27477142Y8134286D01*
X27420000Y8191429D01*
X27362857Y8305715D01*
X27362857Y8420000D01*
X28162857Y9334286D02*
X27534285Y9334286D01*
X27420000Y9277143D01*
X27362857Y9162858D01*
X27362857Y8934286D01*
X27420000Y8820000D01*
X28105714Y9334286D02*
X28162857Y9220000D01*
X28162857Y8934286D01*
X28105714Y8820000D01*
X27991428Y8762858D01*
X27877142Y8762858D01*
X27762857Y8820000D01*
X27705714Y8934286D01*
X27705714Y9220000D01*
X27648571Y9334286D01*
X26962857Y9791429D02*
X26962857Y10534286D01*
X27420000Y10134286D01*
X27420000Y10305715D01*
X27477142Y10420000D01*
X27534285Y10477143D01*
X27648571Y10534286D01*
X27934285Y10534286D01*
X28048571Y10477143D01*
X28105714Y10420000D01*
X28162857Y10305715D01*
X28162857Y9962858D01*
X28105714Y9848572D01*
X28048571Y9791429D01*
X27362857Y11562858D02*
X28162857Y11562858D01*
X26905714Y11277143D02*
X27762857Y10991429D01*
X27762857Y11734286D01*
X26962857Y12762858D02*
X26962857Y12191429D01*
X27534285Y12134286D01*
X27477142Y12191429D01*
X27420000Y12305715D01*
X27420000Y12591429D01*
X27477142Y12705715D01*
X27534285Y12762858D01*
X27648571Y12820000D01*
X27934285Y12820000D01*
X28048571Y12762858D01*
X28105714Y12705715D01*
X28162857Y12591429D01*
X28162857Y12305715D01*
X28105714Y12191429D01*
X28048571Y12134286D01*
D11*
X8954285Y-5088571D02*
X9882857Y-5088571D01*
X9382857Y-5660000D01*
X9597142Y-5660000D01*
X9740000Y-5731428D01*
X9811428Y-5802857D01*
X9882857Y-5945714D01*
X9882857Y-6302857D01*
X9811428Y-6445714D01*
X9740000Y-6517142D01*
X9597142Y-6588571D01*
X9168571Y-6588571D01*
X9025714Y-6517142D01*
X8954285Y-6445714D01*
X10811428Y-5088571D02*
X10954285Y-5088571D01*
X11097142Y-5160000D01*
X11168571Y-5231428D01*
X11240000Y-5374285D01*
X11311428Y-5660000D01*
X11311428Y-6017142D01*
X11240000Y-6302857D01*
X11168571Y-6445714D01*
X11097142Y-6517142D01*
X10954285Y-6588571D01*
X10811428Y-6588571D01*
X10668571Y-6517142D01*
X10597142Y-6445714D01*
X10525714Y-6302857D01*
X10454285Y-6017142D01*
X10454285Y-5660000D01*
X10525714Y-5374285D01*
X10597142Y-5231428D01*
X10668571Y-5160000D01*
X10811428Y-5088571D01*
X11954285Y-6445714D02*
X12025714Y-6517142D01*
X11954285Y-6588571D01*
X11882857Y-6517142D01*
X11954285Y-6445714D01*
X11954285Y-6588571D01*
X13311428Y-5588571D02*
X13311428Y-6588571D01*
X12954285Y-5017142D02*
X12597142Y-6088571D01*
X13525714Y-6088571D01*
X14311428Y-5731428D02*
X14168571Y-5660000D01*
X14097142Y-5588571D01*
X14025714Y-5445714D01*
X14025714Y-5374285D01*
X14097142Y-5231428D01*
X14168571Y-5160000D01*
X14311428Y-5088571D01*
X14597142Y-5088571D01*
X14740000Y-5160000D01*
X14811428Y-5231428D01*
X14882857Y-5374285D01*
X14882857Y-5445714D01*
X14811428Y-5588571D01*
X14740000Y-5660000D01*
X14597142Y-5731428D01*
X14311428Y-5731428D01*
X14168571Y-5802857D01*
X14097142Y-5874285D01*
X14025714Y-6017142D01*
X14025714Y-6302857D01*
X14097142Y-6445714D01*
X14168571Y-6517142D01*
X14311428Y-6588571D01*
X14597142Y-6588571D01*
X14740000Y-6517142D01*
X14811428Y-6445714D01*
X14882857Y-6302857D01*
X14882857Y-6017142D01*
X14811428Y-5874285D01*
X14740000Y-5802857D01*
X14597142Y-5731428D01*
X15811428Y-5088571D02*
X15954285Y-5088571D01*
X16097142Y-5160000D01*
X16168571Y-5231428D01*
X16240000Y-5374285D01*
X16311428Y-5660000D01*
X16311428Y-6017142D01*
X16240000Y-6302857D01*
X16168571Y-6445714D01*
X16097142Y-6517142D01*
X15954285Y-6588571D01*
X15811428Y-6588571D01*
X15668571Y-6517142D01*
X15597142Y-6445714D01*
X15525714Y-6302857D01*
X15454285Y-6017142D01*
X15454285Y-5660000D01*
X15525714Y-5374285D01*
X15597142Y-5231428D01*
X15668571Y-5160000D01*
X15811428Y-5088571D01*
X18097142Y-6588571D02*
X18097142Y-5588571D01*
X18097142Y-5731428D02*
X18168571Y-5660000D01*
X18311428Y-5588571D01*
X18525714Y-5588571D01*
X18668571Y-5660000D01*
X18740000Y-5802857D01*
X18740000Y-6588571D01*
X18740000Y-5802857D02*
X18811428Y-5660000D01*
X18954285Y-5588571D01*
X19168571Y-5588571D01*
X19311428Y-5660000D01*
X19382857Y-5802857D01*
X19382857Y-6588571D01*
X20097142Y-6588571D02*
X20097142Y-5588571D01*
X20097142Y-5731428D02*
X20168571Y-5660000D01*
X20311428Y-5588571D01*
X20525714Y-5588571D01*
X20668571Y-5660000D01*
X20740000Y-5802857D01*
X20740000Y-6588571D01*
X20740000Y-5802857D02*
X20811428Y-5660000D01*
X20954285Y-5588571D01*
X21168571Y-5588571D01*
X21311428Y-5660000D01*
X21382857Y-5802857D01*
X21382857Y-6588571D01*
X30480000Y-3810000D02*
X0Y-3810000D01*
X30480000Y0D02*
X30480000Y-4396421D01*
X0Y0D02*
X0Y-4396421D01*
X0Y-3810000D02*
X1126504Y-3223579D01*
X0Y-3810000D02*
X1126504Y-4396421D01*
X30480000Y-3810000D02*
X29353496Y-3223579D01*
X30480000Y-3810000D02*
X29353496Y-4396421D01*
X39608571Y17644286D02*
X39680000Y17572858D01*
X39751428Y17430000D01*
X39751428Y17072858D01*
X39680000Y16930000D01*
X39608571Y16858572D01*
X39465714Y16787143D01*
X39322857Y16787143D01*
X39108571Y16858572D01*
X38251428Y17715715D01*
X38251428Y16787143D01*
X39608571Y16215715D02*
X39680000Y16144286D01*
X39751428Y16001429D01*
X39751428Y15644286D01*
X39680000Y15501429D01*
X39608571Y15430000D01*
X39465714Y15358572D01*
X39322857Y15358572D01*
X39108571Y15430000D01*
X38251428Y16287143D01*
X38251428Y15358572D01*
X38394285Y14715715D02*
X38322857Y14644286D01*
X38251428Y14715715D01*
X38322857Y14787143D01*
X38394285Y14715715D01*
X38251428Y14715715D01*
X39108571Y13787143D02*
X39180000Y13930000D01*
X39251428Y14001429D01*
X39394285Y14072858D01*
X39465714Y14072858D01*
X39608571Y14001429D01*
X39680000Y13930000D01*
X39751428Y13787143D01*
X39751428Y13501429D01*
X39680000Y13358572D01*
X39608571Y13287143D01*
X39465714Y13215715D01*
X39394285Y13215715D01*
X39251428Y13287143D01*
X39180000Y13358572D01*
X39108571Y13501429D01*
X39108571Y13787143D01*
X39037142Y13930000D01*
X38965714Y14001429D01*
X38822857Y14072858D01*
X38537142Y14072858D01*
X38394285Y14001429D01*
X38322857Y13930000D01*
X38251428Y13787143D01*
X38251428Y13501429D01*
X38322857Y13358572D01*
X38394285Y13287143D01*
X38537142Y13215715D01*
X38822857Y13215715D01*
X38965714Y13287143D01*
X39037142Y13358572D01*
X39108571Y13501429D01*
X39751428Y11930000D02*
X39751428Y12215715D01*
X39680000Y12358572D01*
X39608571Y12430000D01*
X39394285Y12572858D01*
X39108571Y12644286D01*
X38537142Y12644286D01*
X38394285Y12572858D01*
X38322857Y12501429D01*
X38251428Y12358572D01*
X38251428Y12072858D01*
X38322857Y11930000D01*
X38394285Y11858572D01*
X38537142Y11787143D01*
X38894285Y11787143D01*
X39037142Y11858572D01*
X39108571Y11930000D01*
X39180000Y12072858D01*
X39180000Y12358572D01*
X39108571Y12501429D01*
X39037142Y12572858D01*
X38894285Y12644286D01*
X39751428Y10858572D02*
X39751428Y10715715D01*
X39680000Y10572858D01*
X39608571Y10501429D01*
X39465714Y10430000D01*
X39180000Y10358572D01*
X38822857Y10358572D01*
X38537142Y10430000D01*
X38394285Y10501429D01*
X38322857Y10572858D01*
X38251428Y10715715D01*
X38251428Y10858572D01*
X38322857Y11001429D01*
X38394285Y11072858D01*
X38537142Y11144286D01*
X38822857Y11215715D01*
X39180000Y11215715D01*
X39465714Y11144286D01*
X39608571Y11072858D01*
X39680000Y11001429D01*
X39751428Y10858572D01*
X38251428Y8572858D02*
X39251428Y8572858D01*
X39108571Y8572858D02*
X39180000Y8501429D01*
X39251428Y8358572D01*
X39251428Y8144286D01*
X39180000Y8001429D01*
X39037142Y7930000D01*
X38251428Y7930000D01*
X39037142Y7930000D02*
X39180000Y7858572D01*
X39251428Y7715715D01*
X39251428Y7501429D01*
X39180000Y7358572D01*
X39037142Y7287143D01*
X38251428Y7287143D01*
X38251428Y6572858D02*
X39251428Y6572858D01*
X39108571Y6572858D02*
X39180000Y6501429D01*
X39251428Y6358572D01*
X39251428Y6144286D01*
X39180000Y6001429D01*
X39037142Y5930000D01*
X38251428Y5930000D01*
X39037142Y5930000D02*
X39180000Y5858572D01*
X39251428Y5715715D01*
X39251428Y5501429D01*
X39180000Y5358572D01*
X39037142Y5287143D01*
X38251428Y5287143D01*
X36830000Y22860000D02*
X36830000Y0D01*
X30480000Y22860000D02*
X37416421Y22860000D01*
X30480000Y0D02*
X37416421Y0D01*
X36830000Y0D02*
X36243579Y1126504D01*
X36830000Y0D02*
X37416421Y1126504D01*
X36830000Y22860000D02*
X36243579Y21733496D01*
X36830000Y22860000D02*
X37416421Y21733496D01*
D12*
X29019523Y20486620D02*
X28543333Y20486620D01*
X28495714Y20010429D01*
X28543333Y20058048D01*
X28638571Y20105667D01*
X28876666Y20105667D01*
X28971904Y20058048D01*
X29019523Y20010429D01*
X29067142Y19915191D01*
X29067142Y19677096D01*
X29019523Y19581858D01*
X28971904Y19534239D01*
X28876666Y19486620D01*
X28638571Y19486620D01*
X28543333Y19534239D01*
X28495714Y19581858D01*
X29352857Y20486620D02*
X29686190Y19486620D01*
X30019523Y20486620D01*
D13*
G04 #@! TO.C,J1*
X25340000Y15180000D02*
X28000000Y15180000D01*
X25340000Y17780000D02*
X25340000Y15180000D01*
X28000000Y17780000D02*
X28000000Y15180000D01*
X25340000Y17780000D02*
X28000000Y17780000D01*
X25340000Y19050000D02*
X25340000Y20380000D01*
X25340000Y20380000D02*
X26670000Y20380000D01*
G04 #@! TO.C,D1*
X6350462Y15690000D02*
G75*
G03X4805170Y10140000I-462J-2990000D01*
G01*
X6349538Y15690000D02*
G75*
G02X7894830Y10140000I462J-2990000D01*
G01*
X8850000Y12700000D02*
G75*
G03X8850000Y12700000I-2500000J0D01*
G01*
X4805000Y10140000D02*
X7895000Y10140000D01*
G04 #@! TO.C,Q1*
X4550000Y1960000D02*
X8150000Y1960000D01*
X4511522Y1971522D02*
G75*
G02X6350000Y6410000I1838478J1838478D01*
G01*
X8188478Y1971522D02*
G75*
G03X6350000Y6410000I-1838478J1838478D01*
G01*
G04 #@! TO.C,R1*
X20550000Y3810000D02*
X19780000Y3810000D01*
X12470000Y3810000D02*
X13240000Y3810000D01*
X19780000Y5180000D02*
X13240000Y5180000D01*
X19780000Y2440000D02*
X19780000Y5180000D01*
X13240000Y2440000D02*
X19780000Y2440000D01*
X13240000Y5180000D02*
X13240000Y2440000D01*
G04 #@! TO.C,R2*
X19780000Y17680000D02*
X19780000Y20420000D01*
X19780000Y20420000D02*
X13240000Y20420000D01*
X13240000Y20420000D02*
X13240000Y17680000D01*
X13240000Y17680000D02*
X19780000Y17680000D01*
X20550000Y19050000D02*
X19780000Y19050000D01*
X12470000Y19050000D02*
X13240000Y19050000D01*
G04 #@! TO.C,SW1*
X16240000Y8470000D02*
X20740000Y8470000D01*
X14990000Y12470000D02*
X14990000Y10970000D01*
X20740000Y14970000D02*
X16240000Y14970000D01*
X21990000Y10970000D02*
X21990000Y12470000D01*
G04 #@! TO.C,J1*
D12*
X26336666Y21927620D02*
X26336666Y21213334D01*
X26289047Y21070477D01*
X26193809Y20975239D01*
X26050952Y20927620D01*
X25955714Y20927620D01*
X27336666Y20927620D02*
X26765238Y20927620D01*
X27050952Y20927620D02*
X27050952Y21927620D01*
X26955714Y21784762D01*
X26860476Y21689524D01*
X26765238Y21641905D01*
G04 #@! TO.C,D1*
X2842380Y11961905D02*
X1842380Y11961905D01*
X1842380Y12200000D01*
X1890000Y12342858D01*
X1985238Y12438096D01*
X2080476Y12485715D01*
X2270952Y12533334D01*
X2413809Y12533334D01*
X2604285Y12485715D01*
X2699523Y12438096D01*
X2794761Y12342858D01*
X2842380Y12200000D01*
X2842380Y11961905D01*
X2842380Y13485715D02*
X2842380Y12914286D01*
X2842380Y13200000D02*
X1842380Y13200000D01*
X1985238Y13104762D01*
X2080476Y13009524D01*
X2128095Y12914286D01*
X10762380Y12057143D02*
X10762380Y11580953D01*
X9762380Y11580953D01*
X10238571Y12390477D02*
X10238571Y12723810D01*
X10762380Y12866667D02*
X10762380Y12390477D01*
X9762380Y12390477D01*
X9762380Y12866667D01*
X10762380Y13295239D02*
X9762380Y13295239D01*
X9762380Y13533334D01*
X9810000Y13676191D01*
X9905238Y13771429D01*
X10000476Y13819048D01*
X10190952Y13866667D01*
X10333809Y13866667D01*
X10524285Y13819048D01*
X10619523Y13771429D01*
X10714761Y13676191D01*
X10762380Y13533334D01*
X10762380Y13295239D01*
G04 #@! TO.C,Q1*
X3468619Y3841762D02*
X3421000Y3746524D01*
X3325761Y3651286D01*
X3182904Y3508429D01*
X3135285Y3413191D01*
X3135285Y3317953D01*
X3373380Y3365572D02*
X3325761Y3270334D01*
X3230523Y3175096D01*
X3040047Y3127477D01*
X2706714Y3127477D01*
X2516238Y3175096D01*
X2421000Y3270334D01*
X2373380Y3365572D01*
X2373380Y3556048D01*
X2421000Y3651286D01*
X2516238Y3746524D01*
X2706714Y3794143D01*
X3040047Y3794143D01*
X3230523Y3746524D01*
X3325761Y3651286D01*
X3373380Y3556048D01*
X3373380Y3365572D01*
X3373380Y4746524D02*
X3373380Y4175096D01*
X3373380Y4460810D02*
X2373380Y4460810D01*
X2516238Y4365572D01*
X2611476Y4270334D01*
X2659095Y4175096D01*
X3310333Y8072381D02*
X3357952Y8120000D01*
X3453190Y8167620D01*
X3691285Y8167620D01*
X3786523Y8120000D01*
X3834142Y8072381D01*
X3881761Y7977143D01*
X3881761Y7881905D01*
X3834142Y7739048D01*
X3262714Y7167620D01*
X3881761Y7167620D01*
X4262714Y7215239D02*
X4405571Y7167620D01*
X4643666Y7167620D01*
X4738904Y7215239D01*
X4786523Y7262858D01*
X4834142Y7358096D01*
X4834142Y7453334D01*
X4786523Y7548572D01*
X4738904Y7596191D01*
X4643666Y7643810D01*
X4453190Y7691429D01*
X4357952Y7739048D01*
X4310333Y7786667D01*
X4262714Y7881905D01*
X4262714Y7977143D01*
X4310333Y8072381D01*
X4357952Y8120000D01*
X4453190Y8167620D01*
X4691285Y8167620D01*
X4834142Y8120000D01*
X5834142Y7262858D02*
X5786523Y7215239D01*
X5643666Y7167620D01*
X5548428Y7167620D01*
X5405571Y7215239D01*
X5310333Y7310477D01*
X5262714Y7405715D01*
X5215095Y7596191D01*
X5215095Y7739048D01*
X5262714Y7929524D01*
X5310333Y8024762D01*
X5405571Y8120000D01*
X5548428Y8167620D01*
X5643666Y8167620D01*
X5786523Y8120000D01*
X5834142Y8072381D01*
X6786523Y7167620D02*
X6215095Y7167620D01*
X6500809Y7167620D02*
X6500809Y8167620D01*
X6405571Y8024762D01*
X6310333Y7929524D01*
X6215095Y7881905D01*
X7357952Y7739048D02*
X7262714Y7786667D01*
X7215095Y7834286D01*
X7167476Y7929524D01*
X7167476Y7977143D01*
X7215095Y8072381D01*
X7262714Y8120000D01*
X7357952Y8167620D01*
X7548428Y8167620D01*
X7643666Y8120000D01*
X7691285Y8072381D01*
X7738904Y7977143D01*
X7738904Y7929524D01*
X7691285Y7834286D01*
X7643666Y7786667D01*
X7548428Y7739048D01*
X7357952Y7739048D01*
X7262714Y7691429D01*
X7215095Y7643810D01*
X7167476Y7548572D01*
X7167476Y7358096D01*
X7215095Y7262858D01*
X7262714Y7215239D01*
X7357952Y7167620D01*
X7548428Y7167620D01*
X7643666Y7215239D01*
X7691285Y7262858D01*
X7738904Y7358096D01*
X7738904Y7548572D01*
X7691285Y7643810D01*
X7643666Y7691429D01*
X7548428Y7739048D01*
X8691285Y7167620D02*
X8119857Y7167620D01*
X8405571Y7167620D02*
X8405571Y8167620D01*
X8310333Y8024762D01*
X8215095Y7929524D01*
X8119857Y7881905D01*
X9596047Y8167620D02*
X9119857Y8167620D01*
X9072238Y7691429D01*
X9119857Y7739048D01*
X9215095Y7786667D01*
X9453190Y7786667D01*
X9548428Y7739048D01*
X9596047Y7691429D01*
X9643666Y7596191D01*
X9643666Y7358096D01*
X9596047Y7262858D01*
X9548428Y7215239D01*
X9453190Y7167620D01*
X9215095Y7167620D01*
X9119857Y7215239D01*
X9072238Y7262858D01*
G04 #@! TO.C,R1*
X11390333Y5770620D02*
X11057000Y6246810D01*
X10818904Y5770620D02*
X10818904Y6770620D01*
X11199857Y6770620D01*
X11295095Y6723000D01*
X11342714Y6675381D01*
X11390333Y6580143D01*
X11390333Y6437286D01*
X11342714Y6342048D01*
X11295095Y6294429D01*
X11199857Y6246810D01*
X10818904Y6246810D01*
X12342714Y5770620D02*
X11771285Y5770620D01*
X12057000Y5770620D02*
X12057000Y6770620D01*
X11961761Y6627762D01*
X11866523Y6532524D01*
X11771285Y6484905D01*
X14295619Y6770620D02*
X14962285Y6770620D01*
X14533714Y5770620D01*
X15343238Y5865858D02*
X15390857Y5818239D01*
X15343238Y5770620D01*
X15295619Y5818239D01*
X15343238Y5865858D01*
X15343238Y5770620D01*
X16295619Y6770620D02*
X15819428Y6770620D01*
X15771809Y6294429D01*
X15819428Y6342048D01*
X15914666Y6389667D01*
X16152761Y6389667D01*
X16248000Y6342048D01*
X16295619Y6294429D01*
X16343238Y6199191D01*
X16343238Y5961096D01*
X16295619Y5865858D01*
X16248000Y5818239D01*
X16152761Y5770620D01*
X15914666Y5770620D01*
X15819428Y5818239D01*
X15771809Y5865858D01*
X16771809Y5770620D02*
X16771809Y6770620D01*
X16867047Y6151572D02*
X17152761Y5770620D01*
X17152761Y6437286D02*
X16771809Y6056334D01*
G04 #@! TO.C,R2*
X11263333Y16057620D02*
X10930000Y16533810D01*
X10691904Y16057620D02*
X10691904Y17057620D01*
X11072857Y17057620D01*
X11168095Y17010000D01*
X11215714Y16962381D01*
X11263333Y16867143D01*
X11263333Y16724286D01*
X11215714Y16629048D01*
X11168095Y16581429D01*
X11072857Y16533810D01*
X10691904Y16533810D01*
X11644285Y16962381D02*
X11691904Y17010000D01*
X11787142Y17057620D01*
X12025238Y17057620D01*
X12120476Y17010000D01*
X12168095Y16962381D01*
X12215714Y16867143D01*
X12215714Y16771905D01*
X12168095Y16629048D01*
X11596666Y16057620D01*
X12215714Y16057620D01*
X14827333Y16057620D02*
X14255904Y16057620D01*
X14541619Y16057620D02*
X14541619Y17057620D01*
X14446380Y16914762D01*
X14351142Y16819524D01*
X14255904Y16771905D01*
X15446380Y17057620D02*
X15541619Y17057620D01*
X15636857Y17010000D01*
X15684476Y16962381D01*
X15732095Y16867143D01*
X15779714Y16676667D01*
X15779714Y16438572D01*
X15732095Y16248096D01*
X15684476Y16152858D01*
X15636857Y16105239D01*
X15541619Y16057620D01*
X15446380Y16057620D01*
X15351142Y16105239D01*
X15303523Y16152858D01*
X15255904Y16248096D01*
X15208285Y16438572D01*
X15208285Y16676667D01*
X15255904Y16867143D01*
X15303523Y16962381D01*
X15351142Y17010000D01*
X15446380Y17057620D01*
X16398761Y17057620D02*
X16494000Y17057620D01*
X16589238Y17010000D01*
X16636857Y16962381D01*
X16684476Y16867143D01*
X16732095Y16676667D01*
X16732095Y16438572D01*
X16684476Y16248096D01*
X16636857Y16152858D01*
X16589238Y16105239D01*
X16494000Y16057620D01*
X16398761Y16057620D01*
X16303523Y16105239D01*
X16255904Y16152858D01*
X16208285Y16248096D01*
X16160666Y16438572D01*
X16160666Y16676667D01*
X16208285Y16867143D01*
X16255904Y16962381D01*
X16303523Y17010000D01*
X16398761Y17057620D01*
G04 #@! TO.C,SW1*
X17156666Y15565239D02*
X17299523Y15517620D01*
X17537619Y15517620D01*
X17632857Y15565239D01*
X17680476Y15612858D01*
X17728095Y15708096D01*
X17728095Y15803334D01*
X17680476Y15898572D01*
X17632857Y15946191D01*
X17537619Y15993810D01*
X17347142Y16041429D01*
X17251904Y16089048D01*
X17204285Y16136667D01*
X17156666Y16231905D01*
X17156666Y16327143D01*
X17204285Y16422381D01*
X17251904Y16470000D01*
X17347142Y16517620D01*
X17585238Y16517620D01*
X17728095Y16470000D01*
X18061428Y16517620D02*
X18299523Y15517620D01*
X18490000Y16231905D01*
X18680476Y15517620D01*
X18918571Y16517620D01*
X19823333Y15517620D02*
X19251904Y15517620D01*
X19537619Y15517620D02*
X19537619Y16517620D01*
X19442380Y16374762D01*
X19347142Y16279524D01*
X19251904Y16231905D01*
G04 #@! TD*
%LPC*%
D14*
G04 #@! TO.C,J1*
X26670000Y19050000D03*
D15*
X26670000Y16510000D03*
G04 #@! TD*
D16*
G04 #@! TO.C,D1*
X6350000Y11430000D03*
D17*
X6350000Y13970000D03*
G04 #@! TD*
D18*
G04 #@! TO.C,Q1*
X6350000Y3810000D03*
X7620000Y3810000D03*
D19*
X5080000Y3810000D03*
G04 #@! TD*
D20*
G04 #@! TO.C,R1*
X21590000Y3810000D03*
D21*
X11430000Y3810000D03*
G04 #@! TD*
G04 #@! TO.C,R2*
X21590000Y19050000D03*
D20*
X11430000Y19050000D03*
G04 #@! TD*
D22*
G04 #@! TO.C,SW1*
X15240000Y9470000D03*
X15240000Y13970000D03*
X21740000Y9470000D03*
X21740000Y13970000D03*
G04 #@! TD*
M02*
