G04 #@! TF.GenerationSoftware,KiCad,Pcbnew,(5.0.0)*
G04 #@! TF.CreationDate,2018-08-12T14:19:39+09:00*
G04 #@! TF.ProjectId,sample01,73616D706C6530312E6B696361645F70,rev?*
G04 #@! TF.SameCoordinates,PX40311b0PY3680a30*
G04 #@! TF.FileFunction,Legend,Bot*
G04 #@! TF.FilePolarity,Positive*
%FSLAX46Y46*%
G04 Gerber Fmt 4.6, Leading zero omitted, Abs format (unit mm)*
G04 Created by KiCad (PCBNEW (5.0.0)) date 08/12/18 14:19:39*
%MOMM*%
%LPD*%
G01*
G04 APERTURE LIST*
%ADD10C,0.100000*%
%ADD11R,2.100000X2.100000*%
%ADD12O,2.100000X2.100000*%
%ADD13R,2.200000X2.200000*%
%ADD14C,2.200000*%
%ADD15O,1.450000X1.900000*%
%ADD16R,1.450000X1.900000*%
%ADD17O,2.000000X2.000000*%
%ADD18C,2.000000*%
%ADD19C,2.400000*%
G04 APERTURE END LIST*
D10*
X25177142Y13220000D02*
X25120000Y13162858D01*
X25062857Y13048572D01*
X25062857Y12762858D01*
X25120000Y12648572D01*
X25177142Y12591429D01*
X25291428Y12534286D01*
X25405714Y12534286D01*
X25577142Y12591429D01*
X26262857Y13277143D01*
X26262857Y12534286D01*
X25062857Y11791429D02*
X25062857Y11677143D01*
X25120000Y11562858D01*
X25177142Y11505715D01*
X25291428Y11448572D01*
X25520000Y11391429D01*
X25805714Y11391429D01*
X26034285Y11448572D01*
X26148571Y11505715D01*
X26205714Y11562858D01*
X26262857Y11677143D01*
X26262857Y11791429D01*
X26205714Y11905715D01*
X26148571Y11962858D01*
X26034285Y12020000D01*
X25805714Y12077143D01*
X25520000Y12077143D01*
X25291428Y12020000D01*
X25177142Y11962858D01*
X25120000Y11905715D01*
X25062857Y11791429D01*
X26262857Y10248572D02*
X26262857Y10934286D01*
X26262857Y10591429D02*
X25062857Y10591429D01*
X25234285Y10705715D01*
X25348571Y10820000D01*
X25405714Y10934286D01*
X25577142Y9562858D02*
X25520000Y9677143D01*
X25462857Y9734286D01*
X25348571Y9791429D01*
X25291428Y9791429D01*
X25177142Y9734286D01*
X25120000Y9677143D01*
X25062857Y9562858D01*
X25062857Y9334286D01*
X25120000Y9220000D01*
X25177142Y9162858D01*
X25291428Y9105715D01*
X25348571Y9105715D01*
X25462857Y9162858D01*
X25520000Y9220000D01*
X25577142Y9334286D01*
X25577142Y9562858D01*
X25634285Y9677143D01*
X25691428Y9734286D01*
X25805714Y9791429D01*
X26034285Y9791429D01*
X26148571Y9734286D01*
X26205714Y9677143D01*
X26262857Y9562858D01*
X26262857Y9334286D01*
X26205714Y9220000D01*
X26148571Y9162858D01*
X26034285Y9105715D01*
X25805714Y9105715D01*
X25691428Y9162858D01*
X25634285Y9220000D01*
X25577142Y9334286D01*
X25005714Y7734286D02*
X26548571Y8762858D01*
X25062857Y7105715D02*
X25062857Y6991429D01*
X25120000Y6877143D01*
X25177142Y6820000D01*
X25291428Y6762858D01*
X25520000Y6705715D01*
X25805714Y6705715D01*
X26034285Y6762858D01*
X26148571Y6820000D01*
X26205714Y6877143D01*
X26262857Y6991429D01*
X26262857Y7105715D01*
X26205714Y7220000D01*
X26148571Y7277143D01*
X26034285Y7334286D01*
X25805714Y7391429D01*
X25520000Y7391429D01*
X25291428Y7334286D01*
X25177142Y7277143D01*
X25120000Y7220000D01*
X25062857Y7105715D01*
X25577142Y6020000D02*
X25520000Y6134286D01*
X25462857Y6191429D01*
X25348571Y6248572D01*
X25291428Y6248572D01*
X25177142Y6191429D01*
X25120000Y6134286D01*
X25062857Y6020000D01*
X25062857Y5791429D01*
X25120000Y5677143D01*
X25177142Y5620000D01*
X25291428Y5562858D01*
X25348571Y5562858D01*
X25462857Y5620000D01*
X25520000Y5677143D01*
X25577142Y5791429D01*
X25577142Y6020000D01*
X25634285Y6134286D01*
X25691428Y6191429D01*
X25805714Y6248572D01*
X26034285Y6248572D01*
X26148571Y6191429D01*
X26205714Y6134286D01*
X26262857Y6020000D01*
X26262857Y5791429D01*
X26205714Y5677143D01*
X26148571Y5620000D01*
X26034285Y5562858D01*
X25805714Y5562858D01*
X25691428Y5620000D01*
X25634285Y5677143D01*
X25577142Y5791429D01*
X25005714Y4191429D02*
X26548571Y5220000D01*
X26262857Y3162858D02*
X26262857Y3848572D01*
X26262857Y3505715D02*
X25062857Y3505715D01*
X25234285Y3620000D01*
X25348571Y3734286D01*
X25405714Y3848572D01*
X25177142Y2705715D02*
X25120000Y2648572D01*
X25062857Y2534286D01*
X25062857Y2248572D01*
X25120000Y2134286D01*
X25177142Y2077143D01*
X25291428Y2020000D01*
X25405714Y2020000D01*
X25577142Y2077143D01*
X26262857Y2762858D01*
X26262857Y2020000D01*
X27534285Y12362858D02*
X27591428Y12191429D01*
X27648571Y12134286D01*
X27762857Y12077143D01*
X27934285Y12077143D01*
X28048571Y12134286D01*
X28105714Y12191429D01*
X28162857Y12305715D01*
X28162857Y12762858D01*
X26962857Y12762858D01*
X26962857Y12362858D01*
X27020000Y12248572D01*
X27077142Y12191429D01*
X27191428Y12134286D01*
X27305714Y12134286D01*
X27420000Y12191429D01*
X27477142Y12248572D01*
X27534285Y12362858D01*
X27534285Y12762858D01*
X27362857Y11677143D02*
X28162857Y11391429D01*
X27362857Y11105715D02*
X28162857Y11391429D01*
X28448571Y11505715D01*
X28505714Y11562858D01*
X28562857Y11677143D01*
X27820000Y9791429D02*
X27820000Y9220000D01*
X28162857Y9905715D02*
X26962857Y9505715D01*
X28162857Y9105715D01*
X28162857Y8705715D02*
X26962857Y8705715D01*
X27705714Y8591429D02*
X28162857Y8248572D01*
X27362857Y8248572D02*
X27820000Y8705715D01*
X28162857Y7734286D02*
X27362857Y7734286D01*
X26962857Y7734286D02*
X27020000Y7791429D01*
X27077142Y7734286D01*
X27020000Y7677143D01*
X26962857Y7734286D01*
X27077142Y7734286D01*
X28162857Y7162858D02*
X27362857Y7162858D01*
X27591428Y7162858D02*
X27477142Y7105715D01*
X27420000Y7048572D01*
X27362857Y6934286D01*
X27362857Y6820000D01*
X28162857Y5905715D02*
X27534285Y5905715D01*
X27420000Y5962858D01*
X27362857Y6077143D01*
X27362857Y6305715D01*
X27420000Y6420000D01*
X28105714Y5905715D02*
X28162857Y6020000D01*
X28162857Y6305715D01*
X28105714Y6420000D01*
X27991428Y6477143D01*
X27877142Y6477143D01*
X27762857Y6420000D01*
X27705714Y6305715D01*
X27705714Y6020000D01*
X27648571Y5905715D01*
X26962857Y5448572D02*
X26962857Y4705715D01*
X27420000Y5105715D01*
X27420000Y4934286D01*
X27477142Y4820000D01*
X27534285Y4762858D01*
X27648571Y4705715D01*
X27934285Y4705715D01*
X28048571Y4762858D01*
X28105714Y4820000D01*
X28162857Y4934286D01*
X28162857Y5277143D01*
X28105714Y5391429D01*
X28048571Y5448572D01*
X27362857Y3677143D02*
X28162857Y3677143D01*
X26905714Y3962858D02*
X27762857Y4248572D01*
X27762857Y3505715D01*
X26962857Y2477143D02*
X26962857Y3048572D01*
X27534285Y3105715D01*
X27477142Y3048572D01*
X27420000Y2934286D01*
X27420000Y2648572D01*
X27477142Y2534286D01*
X27534285Y2477143D01*
X27648571Y2420000D01*
X27934285Y2420000D01*
X28048571Y2477143D01*
X28105714Y2534286D01*
X28162857Y2648572D01*
X28162857Y2934286D01*
X28105714Y3048572D01*
X28048571Y3105715D01*
%LPC*%
D11*
G04 #@! TO.C,J1*
X26670000Y19050000D03*
D12*
X26670000Y16510000D03*
G04 #@! TD*
D13*
G04 #@! TO.C,D1*
X6350000Y11430000D03*
D14*
X6350000Y13970000D03*
G04 #@! TD*
D15*
G04 #@! TO.C,Q1*
X6350000Y3810000D03*
X7620000Y3810000D03*
D16*
X5080000Y3810000D03*
G04 #@! TD*
D17*
G04 #@! TO.C,R1*
X21590000Y3810000D03*
D18*
X11430000Y3810000D03*
G04 #@! TD*
G04 #@! TO.C,R2*
X21590000Y19050000D03*
D17*
X11430000Y19050000D03*
G04 #@! TD*
D19*
G04 #@! TO.C,SW1*
X15240000Y9470000D03*
X15240000Y13970000D03*
X21740000Y9470000D03*
X21740000Y13970000D03*
G04 #@! TD*
M02*
